# AST/ASF file generated using VICON BodyLanguage
# -----------------------------------------------
:version 1.10
:name VICON
:units
  mass 1.0
  length 0.45
  angle deg
:documentation
   .ast/.asf automatically generated from VICON data using
   VICON BodyBuilder and BodyLanguage model FoxedUp or BRILLIANT.MOD
:root
   order TX TY TZ RX RY RZ
   axis XYZ
   position 0 0 0  
   orientation 0 0 0 
:bonedata
  begin
     id 1 
     name lhipjoint
     direction 0.576517 -0.752066 0.319413 
     length 2.45433 
     axis 0 0 0  XYZ
  end
  begin
     id 2 
     name lfemur
     direction 0.34202 -0.939693 0  
     length 7.54459  
     axis 0 0 20  XYZ
    dof rx ry rz
    limits (-160.0 20.0)
           (-70.0 70.0)
           (-60.0 70.0)
  end
  begin
     id 3 
     name ltibia
     direction 0.34202 -0.939693 0   
     length 7.73986   
     axis 0 0 20   XYZ
    dof rx
    limits (-10.0 170.0)
  end
  begin
     id 4 
     name lfoot
     direction 0.090693 -0.249177 0.964202   
     length 2.28437   
     axis -90 7.62852e-016 20   XYZ
    dof rx rz
    limits (-45.0 90.0)
           (-70.0 20.0)
  end
  begin
     id 5 
     name ltoes
     direction 1.5356e-011 -4.21928e-011 1   
     length 1.14243   
     axis -90 7.62852e-016 20   XYZ
    dof rx
    limits (-90.0 20.0)
  end
  begin
     id 6 
     name rhipjoint
     direction -0.573937 -0.753736 0.320122   
     length 2.44889  
     axis 0 0 0  XYZ 
  end
  begin
     id 7 
     name rfemur
     direction -0.34202 -0.939693 0   
     length 7.50166   
     axis 0 0 -20   XYZ
    dof rx ry rz
    limits (-160.0 20.0)
           (-70.0 70.0)
           (-70.0 60.0)
  end
  begin
     id 8 
     name rtibia
     direction -0.34202 -0.939693 0   
     length 7.54266   
     axis 0 0 -20   XYZ
    dof rx
    limits (-10.0 170.0)
 end
 begin
     id 9 
     name rfoot
     direction -0.114017 -0.31326 0.942798   
     length 2.34212  
     axis -90 -7.62852e-016 -20   XYZ
    dof rx rz
    limits (-45.0 90.0)
           (-20.0 70.0)
  end
  begin
     id 10 
     name rtoes
     direction -1.53557e-011 -4.21867e-011 1   
     length 1.16246   
     axis -90 -7.62852e-016 -20   XYZ
    dof rx
    limits (-90.0 20.0)
  end
  begin
     id 11 
     name lowerback
     direction -0.0228371 0.999155 -0.034167   
     length 2.0537   
     axis 0 0 0   XYZ
    dof rx ry rz
    limits (-20.0 45.0)
           (-30.0 30.0)
           (-30.0 30.0)
  end
  begin
     id 12 
     name upperback
     direction 0.0198981 0.999794 0.00389455   
     length 2.05302   
     axis 0 0 0   XYZ
    dof rx ry rz
    limits (-20.0 45.0)
           (-30.0 30.0)
           (-30.0 30.0)
  end
  begin
     id 13 
     name thorax
     direction 0.0304566 0.99935 0.0192987   
     length 2.05315   
     axis 0 0 0   XYZ
    dof rx ry rz
    limits (-20.0 45.0)
           (-30.0 30.0)
           (-30.0 30.0)
  end
  begin
     id 14 
     name lowerneck
     direction -0.0196762 0.99417 0.106017   
     length 1.82056   
     axis 0 0 0   XYZ
    dof rx ry rz
    limits (-20.0 45.0)
           (-30.0 30.0)
           (-30.0 30.0)
  end
  begin
     id 15 
     name upperneck
     direction 0.00517787 0.9802 -0.197944   
     length 1.83835   
     axis 0 0 0   XYZ
    dof rx ry rz
    limits (-20.0 45.0)
           (-30.0 30.0)
           (-30.0 30.0)
  end
  begin
     id 16
     name head
     direction 0.00211419 0.996945 -0.078081  
     length 1.85629  
     axis 0 0 0   XYZ
    dof rx ry rz
    limits (-20.0 45.0)
           (-30.0 30.0)
           (-30.0 30.0)
  end
  begin
     id 17 
     name lclavicle
     direction 0.930001 0.365811 -0.0357824  
     length 3.81961  
     axis 0 0 0   XYZ
    dof ry rz
    limits (-20.0 10.0)
           (0.0 20.0)
  end
  begin
     id 18 
     name lhumerus
     direction 1 -4.48968e-011 -3.06644e-027   
     length 5.14507   
     axis 180 -30 -90   XYZ
    dof rx ry rz
    limits (-60.0 90.0)
           (-90.0 90.0)
           (-90.0 90.0)
  end
  begin
     id 19
     name lradius
     direction 1 -4.48965e-011 9.06925e-028   
     length 3.50646   
     axis 180 -30 -90   XYZ
    dof rx
    limits (-10.0 170.0)
  end
  begin
     id 20
     name lwrist
     direction 1 -4.48957e-011 1.03922e-027   
     length 1.75323   
     axis -2.56395e-016 90 90   XYZ
    dof ry
    limits (-180.0 0.0)
 end
  begin
     id 21 
     name lhand
     direction 1 -4.48967e-011 2.08017e-027   
     length 0.629969   
     axis -1.32723e-015 90 90   XYZ
    dof rx rz
    limits (-90.0 90.0)
           (-45.0 45.0)
  end
  begin
     id 22 
     name lfingers
     direction 1 -4.49089e-011 4.20095e-027   
     length 0.507897   
     axis -2.6545e-015 90 90   XYZ
    dof rx
    limits (0.0 90.0)
  end
  begin
     id 23
     name lthumb
     direction 0.707107 -6.35001e-011 0.707107   
     length 0.729241   
     axis -90 45 5.05613e-014   XYZ
    dof rx rz
    limits (-45.0 45.0)
           (-45.0 45.0)
  end
  begin
     id 24 
     name rclavicle
     direction -0.881882 0.464123 -0.0829113   
     length 3.47515  
     axis 0 0 0   XYZ 
    dof ry rz
    limits (-10.0 20.0)
           (-20.0 0.0)
  end
  begin
     id 25 
     name rhumerus
     direction -1 -4.48961e-011 -1.55672e-027  
     length 5.232   
     axis 180 30 90   XYZ
    dof rx ry rz
    limits (-90.0 60.0)
           (-90.0 90.0)
           (-90.0 90.0)
  end
  begin
     id 26 
     name rradius
     direction -1 -4.48963e-011 6.18178e-029   
     length 3.65641   
     axis 180 30 90   XYZ
    dof rx
    limits (-10.0 170.0)
  end
  begin
     id 27 
     name rwrist
     direction -1 -4.48982e-011 1.04136e-027   
     length 1.8282   
     axis -2.56395e-016 -90 -90   XYZ
    dof ry
    limits (-180.0 0.0)
  end
  begin
     id 28
     name rhand
     direction -1 -4.48929e-011 2.07378e-027   
     length 0.656807   
     axis -1.32723e-015 -90 -90   XYZ
    dof rx rz
    limits (-90.0 90.0)
           (-45.0 45.0)
  end
  begin
     id 29
     name rfingers
     direction -1 -4.489e-011 4.13816e-027   
     length 0.529535   
     axis -2.6545e-015 -90 -90   XYZ
    dof rx
    limits (0.0 90.0)
  end
  begin
     id 30
     name rthumb
     direction -0.707107 -6.34843e-011 0.707107   
     length 0.760309   
     axis -90 -45 -5.05613e-014   XYZ
    dof rx rz
    limits (-45.0 45.0)
           (-45.0 45.0)
  end
:hierarchy
  begin
    root lhipjoint rhipjoint lowerback
    lhipjoint lfemur
    lfemur ltibia
    ltibia lfoot
    lfoot ltoes
    rhipjoint rfemur
    rfemur rtibia
    rtibia rfoot
    rfoot rtoes
    lowerback upperback
    upperback thorax
    thorax lowerneck lclavicle rclavicle
    lowerneck upperneck
    upperneck head
    lclavicle lhumerus
    lhumerus lradius
    lradius lwrist
    lwrist lhand lthumb
    lhand lfingers
    rclavicle rhumerus
    rhumerus rradius
    rradius rwrist
    rwrist rhand rthumb
    rhand rfingers
  end

#!OML:ASF H:\ManfredETheater\Project 1\Capture day 1\Session 1\subject.ASF
:FULLY-SPECIFIED
:DEGREES
16
root -0.385116 15.5629 34.0642 -160.743 -0.593459 -187.356
lowerback 17.1009 -2.77917 -3.29195
upperback -0.321258 -4.4738 0.0080723
thorax -9.70435 -2.02147 2.99645
lowerneck -16.3219 -0.507707 0.331444
upperneck -4.23106 0.0509922 1.81755
head 1.40834 0.4223 0.534343
rclavicle 2.18663e-015 1.74931e-014
rhumerus -55.1946 -7.54208 -82.9322
rradius 66.3377
rwrist -8.22795
rhand -31.1245 1.83916
rfingers 7.12502
rthumb -4.40338 -28.0951
lclavicle 2.18663e-015 1.74931e-014
lhumerus -26.8651 -20.3848 100.793
lradius 99.5154
lwrist 12.0201
lhand -26.1454 -11.0381
lfingers 7.12502
lthumb 0.405327 18.9413
rfemur -52.5196 -12.6158 13.9262
rtibia 97.1892
rfoot -8.5463 -8.95819
rtoes -26.4396
lfemur -31.3098 -2.17252 -31.1742
ltibia 58.1169
lfoot -36.0781 -4.34722
ltoes 2.38562
17
root -0.388903 15.5735 33.5133 -160.79 -0.537952 -187.606
lowerback 16.6698 -3.03003 -3.49414
upperback -0.427476 -4.81481 0.0856311
thorax -9.5307 -2.1735 3.24778
lowerneck -16.4246 -0.269409 0.348158
upperneck -4.1164 0.353542 1.52175
head 1.46185 0.559812 0.456328
rclavicle -6.40087e-014 1.66979e-014
rhumerus -57.5138 -7.70584 -81.3124
rradius 66.6709
rwrist -8.69649
rhand -31.1323 1.92382
rfingers 7.12502
rthumb -4.41091 -28.0103
lclavicle -6.40087e-014 1.66979e-014
lhumerus -24.6032 -20.4963 100.433
lradius 101.721
lwrist 12.6092
lhand -26.3508 -10.8799
lfingers 7.12502
lthumb 0.206947 19.0997
rfemur -56.5446 -12.4906 14.2457
rtibia 96.5451
rfoot -9.43185 -9.31634
rtoes -26.8707
lfemur -28.1098 -2.43422 -31.3475
ltibia 56.176
lfoot -36.0186 -4.42034
ltoes 0.833111
18
root -0.391011 15.6 32.9479 -160.869 -0.416013 -187.788
lowerback 16.2171 -3.27947 -3.68407
upperback -0.538865 -5.14556 0.198634
thorax -9.34499 -2.32131 3.52156
lowerneck -16.5572 0.00543502 0.3651
upperneck -3.91513 0.696522 1.22025
head 1.55084 0.714249 0.37995
rclavicle 1.48095e-014 -1.98785e-015
rhumerus -59.7497 -7.65238 -79.6985
rradius 67.2538
rwrist -9.33973
rhand -31.1168 1.99978
rfingers 7.12502
rthumb -4.39594 -27.9346
lclavicle 1.48095e-014 -1.98785e-015
lhumerus -22.5304 -20.5825 99.9541
lradius 103.993
lwrist 13.5095
lhand -26.5832 -10.8275
lfingers 7.12502
lthumb -0.0175576 19.1522
rfemur -60.1077 -12.1345 14.5756
rtibia 95.036
rfoot -10.1842 -9.49597
rtoes -27.5848
lfemur -24.7529 -2.53757 -31.4706
ltibia 53.9206
lfoot -35.4651 -4.66892
ltoes -1.02081
19
root -0.391315 15.638 32.3694 -160.989 -0.246826 -187.892
lowerback 15.7601 -3.53031 -3.83643
upperback -0.655883 -5.46624 0.346952
thorax -9.15959 -2.46579 3.80474
lowerneck -16.708 0.307783 0.369718
upperneck -3.63755 1.07143 0.942917
head 1.67025 0.88239 0.316602
rclavicle 1.26228e-014 3.26007e-014
rhumerus -61.8756 -7.43569 -78.0902
rradius 68.0136
rwrist -10.0856
rhand -31.0979 2.11054
rfingers 7.12502
rthumb -4.37766 -27.8242
lclavicle 1.26228e-014 3.26007e-014
lhumerus -20.6184 -20.6615 99.3328
lradius 106.246
lwrist 14.6868
lhand -26.7561 -10.9031
lfingers 7.12502
lthumb -0.18449 19.0766
rfemur -63.1506 -11.6133 14.9093
rtibia 92.7442
rfoot -10.8816 -9.47925
rtoes -28.5119
lfemur -21.2888 -2.53856 -31.5121
ltibia 51.4255
lfoot -34.3647 -5.1176
ltoes -3.2251
20
root -0.389838 15.6838 31.78 -161.158 -0.0405318 -187.908
lowerback 15.3119 -3.77346 -3.92769
upperback -0.765766 -5.76267 0.526688
thorax -8.97216 -2.60191 4.0777
lowerneck -16.8786 0.622217 0.357424
upperneck -3.30171 1.46149 0.703454
head 1.81435 1.05715 0.270698
rclavicle 6.60959e-014 -1.98785e-015
rhumerus -63.8549 -7.12894 -76.4893
rradius 68.8977
rwrist -10.824
rhand -31.1032 2.22751
rfingers 7.12502
rthumb -4.38281 -27.7071
lclavicle 6.60959e-014 -1.98785e-015
lhumerus -18.8449 -20.7532 98.5705
lradius 108.401
lwrist 15.974
lhand -26.8058 -11.1093
lfingers 7.12502
lthumb -0.232482 18.8703
rfemur -65.643 -10.9833 15.2526
rtibia 89.7683
rfoot -11.5609 -9.2501
rtoes -29.5787
lfemur -17.7735 -2.49331 -31.4501
ltibia 48.7901
lfoot -32.6683 -5.81469
ltoes -5.66988
21
root -0.386627 15.735 31.1806 -161.388 0.189051 -187.849
lowerback 14.8774 -4.00306 -3.9629
upperback -0.858854 -6.03007 0.733873
thorax -8.77619 -2.72783 4.33854
lowerneck -17.0435 0.937024 0.328279
upperneck -2.9367 1.8536 0.488819
head 1.96879 1.23206 0.237046
rclavicle 7.59357e-014 -4.37326e-015
rhumerus -65.6607 -6.78735 -74.8867
rradius 69.8598
rwrist -11.4141
rhand -31.1321 2.32579
rfingers 7.12502
rthumb -4.4107 -27.6083
lclavicle 7.59357e-014 -4.37326e-015
lhumerus -17.2227 -20.8432 97.701
lradius 110.402
lwrist 17.1298
lhand -26.6889 -11.413
lfingers 7.12502
lthumb -0.119612 18.5667
rfemur -67.568 -10.3179 15.6063
rtibia 86.2128
rfoot -12.2127 -8.79474
rtoes -30.7532
lfemur -14.2478 -2.46561 -31.2964
ltibia 46.1107
lfoot -30.3046 -6.76245
ltoes -8.26873
22
root -0.381753 15.7898 30.5733 -161.673 0.436239 -187.757
lowerback 14.4505 -4.21074 -3.96967
upperback -0.926789 -6.26511 0.949064
thorax -8.55987 -2.84204 4.58074
lowerneck -17.1971 1.24358 0.295587
upperneck -2.56334 2.23653 0.282721
head 2.1256 1.40167 0.207186
rclavicle -6.06293e-014 -1.07344e-014
rhumerus -67.2588 -6.47928 -73.284
rradius 70.8561
rwrist -11.7829
rhand -31.1573 2.39893
rfingers 7.12502
rthumb -4.43506 -27.5346
lclavicle -6.06293e-014 -1.07344e-014
lhumerus -15.7746 -20.9315 96.7692
lradius 112.208
lwrist 17.8973
lhand -26.3906 -11.7459
lfingers 7.12502
lthumb 0.168451 18.2337
rfemur -68.9547 -9.68415 15.9513
rtibia 82.1903
rfoot -12.7407 -8.11503
rtoes -32.0084
lfemur -10.7845 -2.51788 -31.109
ltibia 43.4784
lfoot -27.1385 -7.94152
ltoes -10.782
23
root -0.375496 15.8467 29.9593 -162.02 0.693571 -187.671
lowerback 14.0259 -4.39248 -3.97487
upperback -0.957567 -6.46919 1.15435
thorax -8.307 -2.94553 4.79959
lowerneck -17.3321 1.53453 0.272343
upperneck -2.19688 2.59987 0.0656144
head 2.27854 1.56055 0.171462
rclavicle 4.8901e-014 1.51076e-014
rhumerus -68.6178 -6.24764 -71.704
rradius 71.874
rwrist -11.9208
rhand -31.1707 2.43909
rfingers 7.12502
rthumb -4.44794 -27.4942
lclavicle 4.8901e-014 1.51076e-014
lhumerus -14.5219 -21.0088 95.8257
lradius 113.781
lwrist 18.0773
lhand -25.9388 -12.0905
lfingers 7.12502
lthumb 0.604808 17.8884
rfemur -69.8365 -9.13694 16.2742
rtibia 77.8396
rfoot -13.0362 -7.22014
rtoes -33.3573
lfemur -7.44926 -2.7028 -30.9498
ltibia 41.0228
lfoot -23.0162 -9.25689
ltoes -12.9427
24
root -0.368175 15.905 29.3401 -162.434 0.964655 -187.619
lowerback 13.6263 -4.54119 -3.99863
upperback -0.956371 -6.63841 1.33212
thorax -8.03727 -3.03476 4.99012
lowerneck -17.4507 1.80434 0.268364
upperneck -1.83051 2.93421 -0.167669
head 2.43063 1.70366 0.125629
rclavicle -9.08446e-014 -2.06736e-014
rhumerus -69.7343 -6.11675 -70.1778
rradius 72.9165
rwrist -11.8935
rhand -31.1329 2.50949
rfingers 7.12502
rthumb -4.41144 -27.4246
lclavicle -9.08446e-014 -2.06736e-014
lhumerus -13.5041 -21.0739 94.9253
lradius 115.093
lwrist 17.5725
lhand -25.4231 -12.4124
lfingers 7.12502
lthumb 1.10293 17.5645
rfemur -70.2517 -8.70188 16.5714
rtibia 73.2725
rfoot -12.9394 -6.14908
rtoes -34.6345
lfemur -4.29587 -3.04641 -30.8784
ltibia 38.8149
lfoot -17.7625 -10.5339
ltoes -14.3196
25
root -0.359681 15.95 28.7205 -162.899 1.21401 -187.637
lowerback 13.2499 -4.72426 -4.06473
upperback -0.930516 -6.78123 1.47139
thorax -7.75328 -3.07762 5.15105
lowerneck -17.5477 2.05108 0.280832
upperneck -1.46273 3.23718 -0.414401
head 2.58142 1.82983 0.0705247
rclavicle 5.1684e-015 -1.74931e-014
rhumerus -70.5904 -6.08534 -68.7496
rradius 73.9831
rwrist -11.8034
rhand -31.0718 2.50406
rfingers 7.12502
rthumb -4.35252 -27.4312
lclavicle 5.1684e-015 -1.74931e-014
lhumerus -12.7376 -21.118 94.1023
lradius 116.128
lwrist 16.423
lhand -24.9312 -12.7015
lfingers 7.12502
lthumb 1.57803 17.2725
rfemur -70.3577 -8.43057 16.85
rtibia 68.6809
rfoot -12.2688 -5.00913
rtoes -35.915
lfemur -1.41381 -3.58504 -30.9512
ltibia 37.0155
lfoot -11.5317 -11.5444
ltoes -14.6398
26
root -0.350862 16.003 28.0982 -163.407 1.42829 -187.743
lowerback 12.9036 -4.83731 -4.16326
upperback -0.889673 -6.92671 1.56383
thorax -7.47414 -3.15771 5.28626
lowerneck -17.6375 2.27014 0.313499
upperneck -1.08284 3.50192 -0.673505
head 2.73739 1.93565 0.00535127
rclavicle -1.25234e-014 3.85642e-014
rhumerus -71.1796 -6.15333 -67.4596
rradius 75.085
rwrist -11.776
rhand -30.9871 2.45426
rfingers 7.12502
rthumb -4.27072 -27.4827
lclavicle -1.25234e-014 3.85642e-014
lhumerus -12.2282 -21.1529 93.3804
lradius 116.867
lwrist 14.7817
lhand -24.5628 -12.9395
lfingers 7.12502
lthumb 1.93379 17.0315
rfemur -70.0846 -8.34538 17.1038
rtibia 64.1153
rfoot -11.0549 -3.91643
rtoes -36.9685
lfemur 1.13166 -4.29954 -31.1984
ltibia 35.7371
lfoot -4.80935 -12.2231
ltoes -13.3143
27
root -0.341471 16.05 27.4774 -163.942 1.59015 -187.954
lowerback 12.6029 -4.9375 -4.31511
upperback -0.849214 -7.06785 1.6073
thorax -7.22112 -3.2334 5.40138
lowerneck -17.7286 2.45664 0.360617
upperneck -0.687799 3.72324 -0.938393
head 2.90097 2.01894 -0.067267
rclavicle 4.57205e-014 -5.96354e-015
rhumerus -71.5099 -6.30923 -66.343
rradius 76.2345
rwrist -11.886
rhand -30.8782 2.42057
rfingers 7.12502
rthumb -4.16549 -27.5184
lclavicle 4.57205e-014 -5.96354e-015
lhumerus -11.9649 -21.1795 92.7828
lradius 117.286
lwrist 12.9012
lhand -24.3368 -13.1161
lfingers 7.12502
lthumb 2.15208 16.8527
rfemur -69.5942 -8.45133 17.3346
rtibia 59.7798
rfoot -9.37011 -2.97974
rtoes -37.6986
lfemur 3.24329 -5.13918 -31.6272
ltibia 35.1971
lfoot 1.6583 -12.5385
ltoes -10.4223
28
root -0.33154 16.0894 26.8603 -164.491 1.68799 -188.27
lowerback 12.3583 -5.0234 -4.52731
upperback -0.818061 -7.20377 1.60577
thorax -7.00845 -3.3032 5.50682
lowerneck -17.8228 2.604 0.411172
upperneck -0.284586 3.89496 -1.19914
head 3.06951 2.07739 -0.142978
rclavicle -3.10104e-014 -1.70955e-014
rhumerus -71.5875 -6.54411 -65.4263
rradius 77.45
rwrist -12.1325
rhand -30.7721 2.37713
rfingers 7.12502
rthumb -4.06302 -27.5639
lclavicle -3.10104e-014 -1.70955e-014
lhumerus -11.9358 -21.2096 92.3261
lradius 117.364
lwrist 11.0376
lhand -24.2541 -13.2187
lfingers 7.12502
lthumb 2.23194 16.7494
rfemur -68.9516 -8.73922 17.5388
rtibia 55.7994
rfoot -7.37846 -2.30026
rtoes -38.1378
lfemur 4.86612 -5.99957 -32.2037
ltibia 35.5148
lfoot 7.07523 -12.522
ltoes -6.63689
29
root -0.321443 16.1197 26.248 -165.056 1.71563 -188.677
lowerback 12.2087 -5.09015 -4.78794
upperback -0.812281 -7.32767 1.56768
thorax -6.87632 -3.36176 5.61034
lowerneck -17.9172 2.70573 0.454827
upperneck 0.12202 4.01051 -1.44877
head 3.24009 2.10822 -0.218614
rclavicle 7.77248e-014 -1.59028e-014
rhumerus -71.4373 -6.84992 -64.7111
rradius 78.7387
rwrist -12.4419
rhand -30.6556 2.37082
rfingers 7.12502
rthumb -3.95057 -27.5723
lclavicle 7.77248e-014 -1.59028e-014
lhumerus -12.1518 -21.2649 92.0438
lradius 117.098
lwrist 9.48047
lhand -24.2579 -13.2035
lfingers 7.12502
lthumb 2.22831 16.7646
rfemur -68.2211 -9.19586 17.7249
rtibia 52.3448
rfoot -5.30814 -1.92697
rtoes -38.4316
lfemur 5.93991 -6.75246 -32.8625
ltibia 36.8407
lfoot 10.783 -12.2138
ltoes -3.30772
